<svg xmlns="http://www.w3.org/2000/svg" version="1.1" xmlns:xlink="http://www.w3.org/1999/xlink" xmlns:svgjs="http://svgjs.dev/svgjs" width="1500" height="1500" viewBox="0 0 1500 1500"><rect width="1500" height="1500" fill="#000000"></rect><g transform="matrix(0.6666666666666666,0,0,0.6666666666666666,249.39393939393938,641.1070216346892)"><svg viewBox="0 0 396 86" data-background-color="#ffffff" preserveAspectRatio="xMidYMid meet" height="325" width="1500" xmlns="http://www.w3.org/2000/svg" xmlns:xlink="http://www.w3.org/1999/xlink"><g id="tight-bounds" transform="matrix(1,0,0,1,0.2400000000000091,0.22213602807718758)"><svg viewBox="0 0 395.52 85.55572794384564" height="85.55572794384564" width="395.52"><g><svg viewBox="0 0 599.2097057143098 129.61625850375532" height="85.55572794384564" width="395.52"><g><rect width="5.826702598540709" height="112.54667887446192" x="410.7731481637191" y="8.5347898146467" fill="#ffffff" opacity="1" stroke-width="0" stroke="transparent" fill-opacity="1" class="rect-qz-0" data-fill-palette-color="primary" rx="1%" id="qz-0" data-palette-color="#c91616"></rect></g><g transform="matrix(1,0,0,1,0,17.91367972085186)"><svg viewBox="0 0 395.52 93.7888990620516" height="93.7888990620516" width="395.52"><g id="textblocktransform"><svg viewBox="0 0 395.52 93.7888990620516" height="93.7888990620516" width="395.52" id="textblock"><g><svg viewBox="0 0 395.52 64.61117675544796" height="64.61117675544796" width="395.52"><g transform="matrix(1,0,0,1,0,0)"><svg width="395.52" viewBox="6.25 -38.4 309.73 50.599999999999994" height="64.61117675544796" data-palette-color="#c91616"><path d="M25.65-18.1Q30.65-15.95 30.65-9.75L30.65-9.75Q30.65-4.7 27.45-2.35 24.25 0 18.45 0L18.45 0 6.25 0 6.25-34.8 18.8-34.8Q23.9-34.8 26.7-32.55 29.5-30.3 29.5-25.7L29.5-25.7Q29.5-20.45 25.65-18.1L25.65-18.1ZM18.25-30.6L10.65-30.6 10.65-19.85 18.25-19.85Q21.7-19.85 23.23-21.1 24.75-22.35 24.75-25.5L24.75-25.5Q24.75-28.4 23.23-29.5 21.7-30.6 18.25-30.6L18.25-30.6ZM18.45-4.2Q22.4-4.2 24.15-5.4 25.9-6.6 25.9-9.95L25.9-9.95Q25.9-13.3 24.13-14.5 22.35-15.7 18.35-15.7L18.35-15.7 10.65-15.7 10.65-4.2 18.45-4.2ZM51.55-26.7L53.1-26.7 53.1-21.85 52.35-21.85Q50-21.85 48.12-21 46.25-20.15 45-18.55L45-18.55 45 0 40.6 0 40.6-20.3 39.5-26.1 43.9-26.1 44.8-21.45Q46.85-24.45 48.27-25.58 49.7-26.7 51.55-26.7L51.55-26.7ZM81.59-13.05L81.59-11.6 63.1-11.6Q63.5-7.75 65.67-5.48 67.84-3.2 71.59-3.2L71.59-3.2Q73.84-3.2 75.97-4.13 78.09-5.05 80.3-6.85L80.3-6.85 80.5-6.85 80.5-2.45Q78.3-0.85 76.15-0.13 74 0.6 71.55 0.6L71.55 0.6Q67.55 0.6 64.59-1.15 61.65-2.9 60.07-6.03 58.5-9.15 58.5-13.2L58.5-13.2Q58.5-17.05 59.92-20.13 61.35-23.2 64-24.95 66.65-26.7 70.2-26.7L70.2-26.7Q73.8-26.7 76.37-24.93 78.95-23.15 80.27-20.05 81.59-16.95 81.59-13.05L81.59-13.05ZM70.25-23.05Q67.15-23.05 65.3-20.8 63.45-18.55 63.1-15L63.1-15 77.05-15Q76.7-18.65 75.02-20.85 73.34-23.05 70.25-23.05L70.25-23.05ZM110.64 0L106.24 0 105.54-3.75Q103.59-1.6 101.32-0.5 99.04 0.6 96.19 0.6L96.19 0.6Q92.64 0.6 90.44-1.43 88.24-3.45 88.24-6.8L88.24-6.8Q88.24-11.15 91.74-13.2 95.24-15.25 100.74-15.25L100.74-15.25Q102.74-15.25 105.14-15L105.14-15 105.14-16.8Q105.14-19.5 103.67-21.13 102.19-22.75 99.84-22.75L99.84-22.75Q97.04-22.75 94.77-22 92.49-21.25 90.09-19.65L90.09-19.65 90.09-23.9Q92.44-25.45 94.89-26.08 97.34-26.7 100.49-26.7L100.49-26.7Q104.49-26.7 107.02-24.15 109.54-21.6 109.54-17.4L109.54-17.4 109.54-5.8 110.64 0ZM97.09-3.1Q99.49-3.1 101.39-4.1 103.29-5.1 105.14-7L105.14-7 105.14-11.9 100.54-11.9Q92.99-11.9 92.99-7.05L92.99-7.05Q92.99-5.25 94.14-4.17 95.29-3.1 97.09-3.1L97.09-3.1ZM135.74 0L128.04-12.2 123.94-7.6 123.94 0 119.54 0 119.54-37.7 123.94-37.7 123.94-13.35 135.34-26.1 140.54-26.1 130.99-15.45 141.14 0 135.74 0ZM149.99-32Q148.59-32 147.71-32.9 146.84-33.8 146.84-35.2L146.84-35.2Q146.84-36.6 147.71-37.5 148.59-38.4 149.99-38.4L149.99-38.4Q151.39-38.4 152.26-37.5 153.14-36.6 153.14-35.2L153.14-35.2Q153.14-33.8 152.26-32.9 151.39-32 149.99-32L149.99-32ZM147.79-26.1L152.19-26.1 152.19 0 147.79 0 147.79-26.1ZM175.94-26.7Q179.64-26.7 181.54-24.43 183.44-22.15 183.44-18.1L183.44-18.1 183.44 0 179.04 0 179.04-17.5Q179.04-20 177.99-21.38 176.94-22.75 174.79-22.75L174.79-22.75Q172.34-22.75 170.66-21.95 168.99-21.15 166.94-19.35L166.94-19.35 166.94 0 162.54 0 162.54-20.3 161.44-26.1 165.84-26.1 166.54-22.45Q168.89-24.7 170.91-25.7 172.94-26.7 175.94-26.7L175.94-26.7ZM212.08-26.15L216.48-26.15 215.38-20.35 215.38-1.7Q215.38 4.9 212.33 8.55 209.28 12.2 203.28 12.2L203.28 12.2Q199.93 12.2 197.78 11.55 195.63 10.9 193.33 8.95L193.33 8.95 193.33 4.5Q195.78 6.55 197.93 7.33 200.08 8.1 203.28 8.1L203.28 8.1Q207.13 8.1 209.06 5.68 210.98 3.25 210.98-1.1L210.98-1.1 210.98-2.4Q209.33-1.3 207.66-0.83 205.98-0.35 203.68-0.35L203.68-0.35Q198.03-0.35 195.16-3.75 192.28-7.15 192.28-13.3L192.28-13.3Q192.28-19.65 195.28-23.18 198.28-26.7 204.18-26.7L204.18-26.7Q206.33-26.7 207.91-26.28 209.48-25.85 211.73-24.85L211.73-24.85 212.08-26.15ZM203.73-4.4Q205.93-4.4 207.58-4.95 209.23-5.5 210.98-6.7L210.98-6.7 210.98-21.8Q209.38-22.35 207.96-22.58 206.53-22.8 204.68-22.8L204.68-22.8Q200.78-22.8 198.91-20.3 197.03-17.8 197.03-13.35L197.03-13.35Q197.03-4.4 203.73-4.4L203.73-4.4ZM276.73-34.8L276.73 0 272.33 0 272.33-31 260.98 0 256.18 0 244.63-30.8 244.63 0 240.23 0 240.23-34.8 247.93-34.8 258.68-6.15 269.18-34.8 276.73-34.8ZM311.58-34.8L315.98-34.8 303.23 0 297.73 0 284.98-34.8 289.63-34.8 300.63-4.85 311.58-34.8Z" opacity="1" transform="matrix(1,0,0,1,0,0)" fill="#ffffff" class="wordmark-text-0" data-fill-palette-color="primary" id="text-0"></path></svg></g></svg></g><g transform="matrix(1,0,0,1,151.2864,79.86432491916709)"><svg viewBox="0 0 244.2336 13.924574142884504" height="13.924574142884504" width="244.2336"><g transform="matrix(1,0,0,1,0,0)"><svg width="244.2336" viewBox="4.7 -35.1 783.06 44.650000000000006" height="13.924574142884504" data-palette-color="#ca3433"><path d="M29.5-32.15L29.25-9.4 29.35 0 25.15 0 8.55-25.65 8.3-25.65 8.25-10.55 8.3 0 4.7 0 4.85-9.5 4.75-32.05 8.9-32.05 25.45-6.4 25.8-6.4 25.75-31.85 29.5-32.15ZM53.3-11.65L38.95-11.6 38.95-11.5Q38.95-7.3 40.85-5.05 42.75-2.8 46.25-2.8L46.25-2.8Q48-2.8 49.75-3.38 51.5-3.95 52.95-5L52.95-5 53.35-4.7 52.75-1.3Q49.25 0.4 45.75 0.4L45.75 0.4Q40.85 0.4 38.05-2.73 35.25-5.85 35.25-11.3L35.25-11.3Q35.25-16.8 38.05-20.05 40.85-23.3 45.6-23.3L45.6-23.3Q49.6-23.3 51.8-21.03 54-18.75 54-14.7L54-14.7Q54-13.35 53.8-12.15L53.8-12.15 53.3-11.65ZM45.6-20.5Q43.1-20.5 41.42-18.88 39.75-17.25 39.2-14.3L39.2-14.3 50.25-14.5 50.35-15.2Q50.35-17.75 49.12-19.13 47.9-20.5 45.6-20.5L45.6-20.5ZM60.85-23.05L61.4-20.1 65.6-4.3 65.9-4.3 70.75-19.9 71.5-22.9 75.4-22.9 75.95-20.1 80.15-4.3 80.45-4.3 85.3-19.9 86.05-22.9 89.5-22.9 81.95 0 78.2 0 73.4-17.75 73.05-17.75 67.5 0 63.6 0 57.2-22.8 60.85-23.05ZM100.14-23.25Q102.99-23.25 105.64-22.15L105.64-22.15 105.09-18.9 104.49-18.75Q101.99-20.4 99.69-20.4L99.69-20.4Q97.99-20.4 96.94-19.45 95.89-18.5 95.89-17.15L95.89-17.15Q95.89-15.8 96.97-14.98 98.04-14.15 100.29-13.1L100.29-13.1Q102.24-12.2 103.42-11.48 104.59-10.75 105.44-9.55 106.29-8.35 106.29-6.6L106.29-6.6Q106.29-4.75 105.34-3.15 104.39-1.55 102.54-0.58 100.69 0.4 98.14 0.4L98.14 0.4Q94.64 0.4 91.49-1.25L91.49-1.25 91.99-4.65 92.44-4.95Q93.84-3.75 95.47-3.1 97.09-2.45 98.54-2.45L98.54-2.45Q100.39-2.45 101.54-3.48 102.69-4.5 102.69-5.9L102.69-5.9Q102.69-7.25 101.62-8.08 100.54-8.9 98.29-9.95L98.29-9.95Q96.34-10.85 95.14-11.58 93.94-12.3 93.09-13.55 92.24-14.8 92.24-16.65L92.24-16.65Q92.24-19.55 94.37-21.4 96.49-23.25 100.14-23.25L100.14-23.25ZM139.79-32.05L140.09-31.65 139.79-28.55 134.19-28.85 130.94-28.85 130.79-10 130.94 0 126.89 0 127.19-9.65 126.94-28.85 123.69-28.85 117.99-28.55 117.74-28.95 118.04-32.05 139.79-32.05ZM159.04 0L159.29-15.55Q159.34-17.6 158.34-18.75 157.34-19.9 155.39-19.9L155.39-19.9Q152.09-19.9 148.64-16.35L148.64-16.35 148.54-10.05 148.79 0 144.84 0 145.14-9.75 144.89-34.75 148.84-35.1 148.64-19.65 148.94-19.65Q152.04-22.4 155.29-23.2L155.29-23.2Q159.09-23.2 161.04-21.45 162.99-19.7 162.94-16.45L162.94-16.45 162.84-9.95 163.04 0 159.04 0ZM178.18-23.3Q181.43-23.3 183.31-21.7 185.18-20.1 185.18-17.3L185.18-17.3Q185.18-16.45 184.88-11.15L184.88-11.15Q184.58-5.85 184.58-4.95L184.58-4.95Q184.58-3.85 184.93-3.43 185.28-3 186.13-3L186.13-3Q186.88-3 187.83-3.3L187.83-3.3 188.23-2.95 187.83-0.7Q186.38 0.15 184.98 0.3L184.98 0.3Q183.43 0.15 182.51-0.8 181.58-1.75 181.53-3.4L181.53-3.4 181.18-3.4Q178.48-0.65 175.83 0.35L175.83 0.35Q172.48 0.35 170.61-1.33 168.73-3 168.73-5.9L168.73-5.9Q168.73-8.1 169.91-9.4 171.08-10.7 173.38-11.25L173.38-11.25 181.48-13.15 181.53-16.4Q181.53-18.35 180.51-19.4 179.48-20.45 177.58-20.45L177.58-20.45Q175.88-20.45 174.18-19.65 172.48-18.85 170.53-17.15L170.53-17.15 170.13-17.35 169.63-20.2Q173.78-23.3 178.18-23.3L178.18-23.3ZM181.43-10.6L174.18-8.85Q173.18-8.55 172.73-8.03 172.28-7.5 172.28-6.45L172.28-6.45Q172.28-4.8 173.21-3.88 174.13-2.95 175.68-2.95L175.68-2.95Q178.43-2.95 181.28-6.5L181.28-6.5 181.43-10.6ZM200.93-3.05Q202.58-3.05 204.53-4.05L204.53-4.05 204.98-3.75 204.58-1.15Q201.88 0.1 199.58 0.3L199.58 0.3Q196.73-0.25 195.48-1.8 194.23-3.35 194.23-6.3L194.23-6.3 194.38-9.85 194.33-20.2 191.18-20.2 190.98-20.5 191.23-22.85 194.28-22.85 194.28-26.55 197.73-28.05 198.13-27.7 198.03-22.85 204.83-22.85 205.03-22.55 204.78-20.2 198.03-20.2 197.78-6.65Q197.73-4.65 198.48-3.85 199.23-3.05 200.93-3.05L200.93-3.05ZM236.63-3.5L236.88-3.1 236.58 0 218.58 0 218.83-9.65 218.58-32.05 236.63-32.05 236.83-31.65 236.53-28.55 228.98-28.7 222.63-28.6 222.53-18.1 228.53-18 233.83-18.15 234.13-17.8 233.78-14.7 228.18-14.8 222.48-14.75 222.43-10 222.58-3.35 228.93-3.3 236.63-3.5ZM248.97-23.3Q250.52-23.3 252.2-22.93 253.87-22.55 255.12-21.95L255.12-21.95 254.42-18.5 253.97-18.35Q251.37-20.05 248.82-20.05L248.82-20.05Q245.87-20.05 244.22-17.8 242.57-15.55 242.57-11.5L242.57-11.5Q242.57-7.45 244.3-5.13 246.02-2.8 249.07-2.8L249.07-2.8Q250.42-2.8 251.9-3.25 253.37-3.7 254.67-4.5L254.67-4.5 255.12-4.25 254.67-0.9Q251.62 0.4 248.57 0.4L248.57 0.4Q244.02 0.4 241.42-2.73 238.82-5.85 238.82-11.3L238.82-11.3Q238.82-16.85 241.55-20.08 244.27-23.3 248.97-23.3L248.97-23.3ZM274.37 0L274.62-15.55Q274.67-17.6 273.67-18.75 272.67-19.9 270.72-19.9L270.72-19.9Q267.42-19.9 263.97-16.35L263.97-16.35 263.87-10.05 264.12 0 260.17 0 260.47-9.75 260.22-34.75 264.17-35.1 263.97-19.65 264.27-19.65Q267.37-22.4 270.62-23.2L270.62-23.2Q274.42-23.2 276.37-21.45 278.32-19.7 278.27-16.45L278.27-16.45 278.17-9.95 278.37 0 274.37 0ZM294.52-23.3Q299.17-23.3 301.74-20.28 304.32-17.25 304.32-11.75L304.32-11.75Q304.32-5.95 301.62-2.78 298.92 0.4 293.92 0.4L293.92 0.4Q289.22 0.4 286.64-2.63 284.07-5.65 284.07-11.15L284.07-11.15Q284.07-16.95 286.79-20.13 289.52-23.3 294.52-23.3L294.52-23.3ZM294.27-20.5Q291.12-20.5 289.47-18.35 287.82-16.2 287.82-12.05L287.82-12.05Q287.82-7.25 289.44-4.85 291.07-2.45 294.17-2.45L294.17-2.45Q297.32-2.45 298.97-4.55 300.62-6.65 300.62-10.85L300.62-10.85Q300.62-15.6 298.99-18.05 297.37-20.5 294.27-20.5L294.27-20.5ZM326.67-11.65L312.32-11.6 312.32-11.5Q312.32-7.3 314.22-5.05 316.12-2.8 319.62-2.8L319.62-2.8Q321.37-2.8 323.12-3.38 324.87-3.95 326.32-5L326.32-5 326.72-4.7 326.12-1.3Q322.62 0.4 319.12 0.4L319.12 0.4Q314.22 0.4 311.42-2.73 308.62-5.85 308.62-11.3L308.62-11.3Q308.62-16.8 311.42-20.05 314.22-23.3 318.97-23.3L318.97-23.3Q322.97-23.3 325.17-21.03 327.37-18.75 327.37-14.7L327.37-14.7Q327.37-13.35 327.17-12.15L327.17-12.15 326.67-11.65ZM318.97-20.5Q316.47-20.5 314.79-18.88 313.12-17.25 312.57-14.3L312.57-14.3 323.62-14.5 323.72-15.2Q323.72-17.75 322.49-19.13 321.27-20.5 318.97-20.5L318.97-20.5ZM339.81-23.25Q342.66-23.25 345.31-22.15L345.31-22.15 344.76-18.9 344.16-18.75Q341.66-20.4 339.36-20.4L339.36-20.4Q337.66-20.4 336.61-19.45 335.56-18.5 335.56-17.15L335.56-17.15Q335.56-15.8 336.64-14.98 337.71-14.15 339.96-13.1L339.96-13.1Q341.91-12.2 343.09-11.48 344.26-10.75 345.11-9.55 345.96-8.35 345.96-6.6L345.96-6.6Q345.96-4.75 345.01-3.15 344.06-1.55 342.21-0.58 340.36 0.4 337.81 0.4L337.81 0.4Q334.31 0.4 331.16-1.25L331.16-1.25 331.66-4.65 332.11-4.95Q333.51-3.75 335.14-3.1 336.76-2.45 338.21-2.45L338.21-2.45Q340.06-2.45 341.21-3.48 342.36-4.5 342.36-5.9L342.36-5.9Q342.36-7.25 341.29-8.08 340.21-8.9 337.96-9.95L337.96-9.95Q336.01-10.85 334.81-11.58 333.61-12.3 332.76-13.55 331.91-14.8 331.91-16.65L331.91-16.65Q331.91-19.55 334.04-21.4 336.16-23.25 339.81-23.25L339.81-23.25ZM374.41-16.7Q381.21-15.35 381.21-8.95L381.21-8.95Q381.21-4.4 377.91-2.1 374.61 0.2 368.06 0.2L368.06 0.2Q363.66 0.2 361.01 0L361.01 0 360.96 0 361.21-9.65 360.96-32.05 369.86-32.1Q374.36-32.1 376.78-30.1 379.21-28.1 379.21-24.3L379.21-24.3Q379.21-21.6 377.96-19.65 376.71-17.7 374.41-16.7L374.41-16.7ZM375.11-23.85Q375.11-26.45 373.68-27.63 372.26-28.8 369.06-28.8L369.06-28.8 365.01-28.8 364.91-18.05 370.41-17.9Q375.11-19 375.11-23.85L375.11-23.85ZM368.66-3.15Q372.76-3.15 374.96-4.7 377.16-6.25 377.16-9.15L377.16-9.15Q377.16-14.05 371.01-14.75L371.01-14.75 364.86-14.7 364.81-10 364.96-3.3Q366.91-3.15 368.66-3.15L368.66-3.15ZM402.81-11.65L388.46-11.6 388.46-11.5Q388.46-7.3 390.36-5.05 392.26-2.8 395.76-2.8L395.76-2.8Q397.51-2.8 399.26-3.38 401.01-3.95 402.46-5L402.46-5 402.86-4.7 402.26-1.3Q398.76 0.4 395.26 0.4L395.26 0.4Q390.36 0.4 387.56-2.73 384.76-5.85 384.76-11.3L384.76-11.3Q384.76-16.8 387.56-20.05 390.36-23.3 395.11-23.3L395.11-23.3Q399.11-23.3 401.31-21.03 403.51-18.75 403.51-14.7L403.51-14.7Q403.51-13.35 403.31-12.15L403.31-12.15 402.81-11.65ZM395.11-20.5Q392.61-20.5 390.93-18.88 389.26-17.25 388.71-14.3L388.71-14.3 399.76-14.5 399.86-15.2Q399.86-17.75 398.63-19.13 397.41-20.5 395.11-20.5L395.11-20.5ZM409.9-23.05L410.65-20.1 416.15-4.3 416.5-4.3 422.2-19.75 422.95-22.9 426.5-22.9 418.3-0.8Q417.05 2.6 415.63 4.55 414.2 6.5 412.18 7.63 410.15 8.75 406.85 9.55L406.85 9.55 406.5 9.55Q405.45 8.5 404.85 7.2L404.85 7.2 404.95 6.75Q408.75 6 410.78 4.63 412.8 3.25 414.55 0L414.55 0 406.15-22.8 409.9-23.05ZM438.9-23.3Q443.55-23.3 446.13-20.28 448.7-17.25 448.7-11.75L448.7-11.75Q448.7-5.95 446-2.78 443.3 0.4 438.3 0.4L438.3 0.4Q433.6 0.4 431.03-2.63 428.45-5.65 428.45-11.15L428.45-11.15Q428.45-16.95 431.18-20.13 433.9-23.3 438.9-23.3L438.9-23.3ZM438.65-20.5Q435.5-20.5 433.85-18.35 432.2-16.2 432.2-12.05L432.2-12.05Q432.2-7.25 433.83-4.85 435.45-2.45 438.55-2.45L438.55-2.45Q441.7-2.45 443.35-4.55 445-6.65 445-10.85L445-10.85Q445-15.6 443.38-18.05 441.75-20.5 438.65-20.5L438.65-20.5ZM468.6 0L468.85-15.55Q468.9-17.6 467.9-18.75 466.9-19.9 464.95-19.9L464.95-19.9Q461.8-19.9 458.15-16.35L458.15-16.35 458.15-10.05 458.35 0 454.4 0 454.65-9.7 454.45-22.65 458.2-23 458.2-19.65 458.5-19.65Q461.6-22.4 464.85-23.2L464.85-23.2Q468.6-23.2 470.57-21.45 472.55-19.7 472.5-16.45L472.5-16.45 472.4-9.95 472.6 0 468.6 0ZM497.7-35.1L497.35-10.05 497.5-4.9Q497.55-3.85 497.85-3.43 498.15-3 498.95-3L498.95-3Q499.75-3 500.65-3.3L500.65-3.3 501.05-2.95 500.65-0.7Q499.3 0.15 497.85 0.3L497.85 0.3Q496.3 0.15 495.42-0.75 494.55-1.65 494.35-3.2L494.35-3.2 494-3.2Q492.5-1.9 491.3-1.13 490.1-0.35 488.55 0.25L488.55 0.25Q483.6 0.25 480.95-2.78 478.3-5.8 478.3-11.4L478.3-11.4Q478.3-17.05 481.25-20.18 484.2-23.3 489.4-23.3L489.4-23.3Q491.75-23.3 493.8-22.8L493.8-22.8 493.75-34.75 497.7-35.1ZM488.95-20.5Q485.75-20.5 483.9-18.32 482.05-16.15 482.05-12.05L482.05-12.05Q482.05-7.8 483.72-5.45 485.4-3.1 488.35-3.1L488.35-3.1Q489.75-3.1 491.07-3.8 492.4-4.5 493.85-6.15L493.85-6.15 493.95-9.75 493.8-19.25Q491.15-20.5 488.95-20.5L488.95-20.5ZM521.54-3.05Q523.19-3.05 525.14-4.05L525.14-4.05 525.59-3.75 525.19-1.15Q522.49 0.1 520.19 0.3L520.19 0.3Q517.34-0.25 516.09-1.8 514.84-3.35 514.84-6.3L514.84-6.3 514.99-9.85 514.94-20.2 511.79-20.2 511.59-20.5 511.84-22.85 514.89-22.85 514.89-26.55 518.34-28.05 518.74-27.7 518.64-22.85 525.44-22.85 525.64-22.55 525.39-20.2 518.64-20.2 518.39-6.65Q518.34-4.65 519.09-3.85 519.84-3.05 521.54-3.05L521.54-3.05ZM544.69 0L544.94-15.55Q544.99-17.6 543.99-18.75 542.99-19.9 541.04-19.9L541.04-19.9Q537.74-19.9 534.29-16.35L534.29-16.35 534.19-10.05 534.44 0 530.49 0 530.79-9.75 530.54-34.75 534.49-35.1 534.29-19.65 534.59-19.65Q537.69-22.4 540.94-23.2L540.94-23.2Q544.74-23.2 546.69-21.45 548.64-19.7 548.59-16.45L548.59-16.45 548.49-9.95 548.69 0 544.69 0ZM572.44-11.65L558.09-11.6 558.09-11.5Q558.09-7.3 559.99-5.05 561.89-2.8 565.39-2.8L565.39-2.8Q567.14-2.8 568.89-3.38 570.64-3.95 572.09-5L572.09-5 572.49-4.7 571.89-1.3Q568.39 0.4 564.89 0.4L564.89 0.4Q559.99 0.4 557.19-2.73 554.39-5.85 554.39-11.3L554.39-11.3Q554.39-16.8 557.19-20.05 559.99-23.3 564.74-23.3L564.74-23.3Q568.74-23.3 570.94-21.03 573.14-18.75 573.14-14.7L573.14-14.7Q573.14-13.35 572.94-12.15L572.94-12.15 572.44-11.65ZM564.74-20.5Q562.24-20.5 560.56-18.88 558.89-17.25 558.34-14.3L558.34-14.3 569.39-14.5 569.49-15.2Q569.49-17.75 568.26-19.13 567.04-20.5 564.74-20.5L564.74-20.5ZM613.08-32.05L612.88-10 612.98 0 609.03 0 609.23-9.65 609.18-14.45 600.28-14.5 592.13-14.45 592.08-10 592.23 0 588.28 0 588.43-9.65 588.28-32.05 592.28-32.05 592.13-17.85 600.63-17.8 609.18-17.85 609.03-32.05 613.08-32.05ZM636.93-11.65L622.58-11.6 622.58-11.5Q622.58-7.3 624.48-5.05 626.38-2.8 629.88-2.8L629.88-2.8Q631.63-2.8 633.38-3.38 635.13-3.95 636.58-5L636.58-5 636.98-4.7 636.38-1.3Q632.88 0.4 629.38 0.4L629.38 0.4Q624.48 0.4 621.68-2.73 618.88-5.85 618.88-11.3L618.88-11.3Q618.88-16.8 621.68-20.05 624.48-23.3 629.23-23.3L629.23-23.3Q633.23-23.3 635.43-21.03 637.63-18.75 637.63-14.7L637.63-14.7Q637.63-13.35 637.43-12.15L637.43-12.15 636.93-11.65ZM629.23-20.5Q626.73-20.5 625.05-18.88 623.38-17.25 622.83-14.3L622.83-14.3 633.88-14.5 633.98-15.2Q633.98-17.75 632.75-19.13 631.53-20.5 629.23-20.5L629.23-20.5ZM651.37-23.3Q654.62-23.3 656.5-21.7 658.37-20.1 658.37-17.3L658.37-17.3Q658.37-16.45 658.07-11.15L658.07-11.15Q657.77-5.85 657.77-4.95L657.77-4.95Q657.77-3.85 658.12-3.43 658.47-3 659.32-3L659.32-3Q660.07-3 661.02-3.3L661.02-3.3 661.42-2.95 661.02-0.7Q659.57 0.15 658.17 0.3L658.17 0.3Q656.62 0.15 655.7-0.8 654.77-1.75 654.72-3.4L654.72-3.4 654.37-3.4Q651.67-0.65 649.02 0.35L649.02 0.35Q645.67 0.35 643.8-1.33 641.92-3 641.92-5.9L641.92-5.9Q641.92-8.1 643.1-9.4 644.27-10.7 646.57-11.25L646.57-11.25 654.67-13.15 654.72-16.4Q654.72-18.35 653.7-19.4 652.67-20.45 650.77-20.45L650.77-20.45Q649.07-20.45 647.37-19.65 645.67-18.85 643.72-17.15L643.72-17.15 643.32-17.35 642.82-20.2Q646.97-23.3 651.37-23.3L651.37-23.3ZM654.62-10.6L647.37-8.85Q646.37-8.55 645.92-8.03 645.47-7.5 645.47-6.45L645.47-6.45Q645.47-4.8 646.4-3.88 647.32-2.95 648.87-2.95L648.87-2.95Q651.62-2.95 654.47-6.5L654.47-6.5 654.62-10.6ZM684.37-35.1L684.02-10.05 684.17-4.9Q684.22-3.85 684.52-3.43 684.82-3 685.62-3L685.62-3Q686.42-3 687.32-3.3L687.32-3.3 687.72-2.95 687.32-0.7Q685.97 0.15 684.52 0.3L684.52 0.3Q682.97 0.15 682.1-0.75 681.22-1.65 681.02-3.2L681.02-3.2 680.67-3.2Q679.17-1.9 677.97-1.13 676.77-0.35 675.22 0.25L675.22 0.25Q670.27 0.25 667.62-2.78 664.97-5.8 664.97-11.4L664.97-11.4Q664.97-17.05 667.92-20.18 670.87-23.3 676.07-23.3L676.07-23.3Q678.42-23.3 680.47-22.8L680.47-22.8 680.42-34.75 684.37-35.1ZM675.62-20.5Q672.42-20.5 670.57-18.32 668.72-16.15 668.72-12.05L668.72-12.05Q668.72-7.8 670.4-5.45 672.07-3.1 675.02-3.1L675.02-3.1Q676.42-3.1 677.75-3.8 679.07-4.5 680.52-6.15L680.52-6.15 680.62-9.75 680.47-19.25Q677.82-20.5 675.62-20.5L675.62-20.5ZM696.97-35.1L696.67-10.05 696.92 0 692.97 0 693.27-9.75 693.02-34.75 696.97-35.1ZM705.17 0L705.37-9.7 705.22-22.65 709.07-23 708.97-10.05 709.07 0 705.17 0ZM707.22-33.15Q708.22-33.15 708.82-32.55 709.42-31.95 709.42-30.9L709.42-30.9Q709.42-29.8 708.79-29.15 708.17-28.5 707.07-28.5L707.07-28.5Q706.02-28.5 705.44-29.1 704.87-29.7 704.87-30.8L704.87-30.8Q704.87-31.85 705.49-32.5 706.12-33.15 707.22-33.15L707.22-33.15ZM731.41 0L731.66-15.55Q731.71-17.6 730.71-18.75 729.71-19.9 727.76-19.9L727.76-19.9Q724.61-19.9 720.96-16.35L720.96-16.35 720.96-10.05 721.16 0 717.21 0 717.46-9.7 717.26-22.65 721.01-23 721.01-19.65 721.31-19.65Q724.41-22.4 727.66-23.2L727.66-23.2Q731.41-23.2 733.39-21.45 735.36-19.7 735.31-16.45L735.31-16.45 735.21-9.95 735.41 0 731.41 0ZM759.16-11.65L744.81-11.6 744.81-11.5Q744.81-7.3 746.71-5.05 748.61-2.8 752.11-2.8L752.11-2.8Q753.86-2.8 755.61-3.38 757.36-3.95 758.81-5L758.81-5 759.21-4.7 758.61-1.3Q755.11 0.4 751.61 0.4L751.61 0.4Q746.71 0.4 743.91-2.73 741.11-5.85 741.11-11.3L741.11-11.3Q741.11-16.8 743.91-20.05 746.71-23.3 751.46-23.3L751.46-23.3Q755.46-23.3 757.66-21.03 759.86-18.75 759.86-14.7L759.86-14.7Q759.86-13.35 759.66-12.15L759.66-12.15 759.16-11.65ZM751.46-20.5Q748.96-20.5 747.29-18.88 745.61-17.25 745.06-14.3L745.06-14.3 756.11-14.5 756.21-15.2Q756.21-17.75 754.99-19.13 753.76-20.5 751.46-20.5L751.46-20.5ZM772.31-23.25Q775.16-23.25 777.81-22.15L777.81-22.15 777.26-18.9 776.66-18.75Q774.16-20.4 771.86-20.4L771.86-20.4Q770.16-20.4 769.11-19.45 768.06-18.5 768.06-17.15L768.06-17.15Q768.06-15.8 769.13-14.98 770.21-14.15 772.46-13.1L772.46-13.1Q774.41-12.2 775.58-11.48 776.76-10.75 777.61-9.55 778.46-8.35 778.46-6.6L778.46-6.6Q778.46-4.75 777.51-3.15 776.56-1.55 774.71-0.58 772.86 0.4 770.31 0.4L770.31 0.4Q766.81 0.4 763.66-1.25L763.66-1.25 764.16-4.65 764.61-4.95Q766.01-3.75 767.63-3.1 769.26-2.45 770.71-2.45L770.71-2.45Q772.56-2.45 773.71-3.48 774.86-4.5 774.86-5.9L774.86-5.9Q774.86-7.25 773.78-8.08 772.71-8.9 770.46-9.95L770.46-9.95Q768.51-10.85 767.31-11.58 766.11-12.3 765.26-13.55 764.41-14.8 764.41-16.65L764.41-16.65Q764.41-19.55 766.53-21.4 768.66-23.25 772.31-23.25L772.31-23.25ZM785.56-4.4Q786.56-4.4 787.16-3.8 787.76-3.2 787.76-2.15L787.76-2.15Q787.76-1.05 787.13-0.4 786.51 0.25 785.41 0.25L785.41 0.25Q784.36 0.25 783.78-0.35 783.21-0.95 783.21-2.05L783.21-2.05Q783.21-3.1 783.83-3.75 784.46-4.4 785.56-4.4L785.56-4.4Z" opacity="1" transform="matrix(1,0,0,1,0,0)" fill="#ffffff" class="slogan-text-1" data-fill-palette-color="secondary" id="text-1"></path></svg></g></svg></g></svg></g></svg></g><g transform="matrix(1,0,0,1,431.8529989259789,0)"><svg viewBox="0 0 167.3567067883309 129.61625850375532" height="129.61625850375532" width="167.3567067883309"><g><svg xmlns="http://www.w3.org/2000/svg" xmlns:xlink="http://www.w3.org/1999/xlink" version="1.1" x="0" y="0" viewBox="27 42 260.3 201.6" enable-background="new 0 0 300 300" xml:space="preserve" height="129.61625850375532" width="167.3567067883309" class="icon-icon-0" data-fill-palette-color="accent" id="icon-0"><path d="M287 221.2V47c0-2.8-2.2-5-5-5H65c-2.8 0-5 2.2-5 5v29H32c-2.8 0-5 2.2-5 5v142c0 1 0.3 2 0.8 2.8 1.6 9.9 10.1 17.2 20.7 17.2h0.1c0.1 0 0.2 0 0.3 0 0 0 0.1 0 0.1 0h16 199c0.7 0.4 1.5 0.6 2.3 0.6 11.6 0 21-9.4 21-21C287.2 222.1 287.1 221.6 287 221.2zM37.5 222.3c0-0.8-0.2-1.6-0.5-2.2V86h23v131.6c-0.6 1-0.9 2.1-0.7 3.4 0.1 0.5 0.1 1.1 0.1 1.7 0 0.5 0 0.7-0.1 1.4-0.8 5.2-5.3 9-10.7 9h-0.1C42.4 233 37.5 228.3 37.5 222.3zM268.7 233.3c-0.5-0.2-1.1-0.3-1.7-0.3H66.5c0.8-1.4 1.5-2.9 2-4.4 0.9-0.9 1.5-2.2 1.5-3.6V52h207v171c0 0.4 0.1 0.8 0.1 1.1C276.5 228.7 273.1 232.3 268.7 233.3zM262 71c0-2.8-2.2-5-5-5H89c-2.8 0-5 2.2-5 5v40c0 2.8 2.2 5 5 5h168c2.8 0 5-2.2 5-5V71zM94 76h157v30H94V76zM178 136c0-2.8-2.2-5-5-5H89c-2.8 0-5 2.2-5 5v57c0 2.8 2.2 5 5 5h84c2.8 0 5-2.2 5-5V136zM94 141h74v47H94V141zM262 136c0 2.8-2.2 5-5 5h-70c-2.8 0-5-2.2-5-5s2.2-5 5-5h70C259.8 131 262 133.2 262 136zM262 164c0 2.8-2.2 5-5 5h-70c-2.8 0-5-2.2-5-5s2.2-5 5-5h70C259.8 159 262 161.2 262 164zM262 193c0 2.8-2.2 5-5 5h-70c-2.8 0-5-2.2-5-5s2.2-5 5-5h70C259.8 188 262 190.2 262 193zM262 214c0 2.8-2.2 5-5 5H89c-2.8 0-5-2.2-5-5s2.2-5 5-5h168C259.8 209 262 211.2 262 214z" fill="#ffffff" data-fill-palette-color="accent"></path></svg></g></svg></g></svg></g><defs></defs></svg><rect width="395.52" height="85.55572794384564" fill="none" stroke="none" visibility="hidden"></rect></g></svg></g></svg>