<?xml version="1.0" encoding="UTF-8"?>
<svg width="16px" height="15px" viewBox="0 0 16 15" version="1.1" xmlns="http://www.w3.org/2000/svg" xmlns:xlink="http://www.w3.org/1999/xlink">
    <!-- Generator: Sketch 61.2 (89653) - https://sketch.com -->
    <title>iconfinder_bubble-24_103186</title>
    <desc>Created with Sketch.</desc>
    <g id="Symbols" stroke="none" stroke-width="1" fill="none" fill-rule="evenodd">
        <g id="anchor/list-item2" transform="translate(-148.000000, -307.000000)" fill-rule="nonzero" stroke="#7F7F7F">
            <g id="promoted-1">
                <g id="Group-6" transform="translate(149.000000, 306.000000)">
                    <g id="iconfinder_bubble-24_103186" transform="translate(0.000000, 2.000000)">
                        <path d="M6.25216667,10.053875 L10.2071667,12.9306667 C10.2719167,12.9767083 10.3115833,13 10.3500833,13 C10.45975,13 10.4924167,12.9312083 10.4924167,12.8169167 L10.4924167,10.096125 C10.4924167,9.90383333 10.6283333,9.75108333 10.8120833,9.75108333 L12.25,9.75 C13.5444167,9.75 14,9.15741667 14,8.66666667 C14,8.17591667 14,1.625 14,1.08333333 C14,0.541666667 13.5636667,0 12.2418333,0 L1.74358333,0 C0.467833333,0 0,0.524875 0,1.08333333 C0,1.64179167 0,8.14179167 0,8.66666667 C0,9.19154167 0.483,9.75 1.75,9.75 L5.25,9.75 C5.25,9.75 5.98208333,9.76895833 6.25216667,10.053875 Z" id="Path"></path>
                    </g>
                </g>
            </g>
        </g>
    </g>
</svg>