<?xml version="1.0" encoding="UTF-8"?>
<svg width="13px" height="13px" viewBox="0 0 13 13" version="1.1" xmlns="http://www.w3.org/2000/svg" xmlns:xlink="http://www.w3.org/1999/xlink">
    <!-- Generator: Sketch 61.2 (89653) - https://sketch.com -->
    <title>iconfinder_clock_1814097</title>
    <desc>Created with Sketch.</desc>
    <g id="Symbols" stroke="none" stroke-width="1" fill="none" fill-rule="evenodd">
        <g id="anchor/list-item2" transform="translate(-193.000000, -308.000000)" fill="#7F7F7F" fill-rule="nonzero">
            <g id="promoted-1">
                <g id="Group-6" transform="translate(149.000000, 306.000000)">
                    <g id="iconfinder_clock_1814097" transform="translate(44.000000, 2.000000)">
                        <path d="M6.47173913,12.9717391 C2.91086957,12.9717391 0,10.0608696 0,6.5 C0,2.93913043 2.91086957,0.0282608696 6.47173913,0.0282608696 C10.0326087,0.0282608696 12.9434783,2.93913043 12.9434783,6.5 C12.9717391,10.0608696 10.0608696,12.9717391 6.47173913,12.9717391 L6.47173913,12.9717391 Z M6.47173913,0.706521739 C3.27826087,0.706521739 0.706521739,3.30652174 0.706521739,6.47173913 C0.706521739,9.63695652 3.30652174,12.2369565 6.47173913,12.2369565 C9.63695652,12.2369565 12.2369565,9.63695652 12.2369565,6.47173913 C12.2369565,3.30652174 9.66521739,0.706521739 6.47173913,0.706521739 L6.47173913,0.706521739 Z" id="Fill-131"></path>
                        <polyline id="Fill-132" points="8.50652174 9.80652174 6.10434783 7.40434783 6.10434783 3.02391304 6.8673913 3.02391304 6.8673913 7.09347826 9.04347826 9.26956522 8.50652174 9.80652174"></polyline>
                    </g>
                </g>
            </g>
        </g>
    </g>
</svg>